<svg width="20" height="20" viewBox="0 0 20 20" fill="none" xmlns="http://www.w3.org/2000/svg">
<g clip-path="url(#clip0_2_29)">
<path d="M18.3333 5.83333H10.8333V1.66667C10.8333 1.44565 10.7455 1.23369 10.5893 1.07741C10.433 0.921129 10.221 0.833332 10 0.833332H1.66668C1.44566 0.833332 1.2337 0.921129 1.07742 1.07741C0.921141 1.23369 0.833344 1.44565 0.833344 1.66667V18.3333C0.833344 18.5543 0.921141 18.7663 1.07742 18.9226C1.2337 19.0789 1.44566 19.1667 1.66668 19.1667H18.3333C18.5544 19.1667 18.7663 19.0789 18.9226 18.9226C19.0789 18.7663 19.1667 18.5543 19.1667 18.3333V6.66667C19.1667 6.44565 19.0789 6.23369 18.9226 6.07741C18.7663 5.92113 18.5544 5.83333 18.3333 5.83333ZM9.16668 10.8333H2.50001V9.16666H9.16668V10.8333ZM9.16668 6.66667V7.5H2.50001V5.83333H9.16668V6.66667ZM2.50001 12.5H9.16668V14.1667H2.50001V12.5ZM9.16668 2.5V4.16667H2.50001V2.5H9.16668ZM2.50001 15.8333H9.16668V17.5H2.50001V15.8333ZM17.5 17.5H10.8333V7.5H17.5V17.5ZM13.3333 13.3333H11.6667V11.6667H13.3333V13.3333ZM13.3333 16.6667H11.6667V15H13.3333V16.6667ZM16.6667 13.3333H15V11.6667H16.6667V13.3333ZM13.3333 10H11.6667V8.33333H13.3333V10ZM16.6667 10H15V8.33333H16.6667V10ZM16.6667 16.6667H15V15H16.6667V16.6667Z" fill="black"/>
</g>
<defs>
<clipPath id="clip0_2_29">
<rect width="20" height="20" fill="white"/>
</clipPath>
</defs>
</svg>
